<?xml version="1.0" encoding="UTF-8" standalone="no"?>
<svg
   xmlns:dc="http://purl.org/dc/elements/1.1/"
   xmlns:cc="http://creativecommons.org/ns#"
   xmlns:rdf="http://www.w3.org/1999/02/22-rdf-syntax-ns#"
   xmlns:svg="http://www.w3.org/2000/svg"
   xmlns="http://www.w3.org/2000/svg"
   viewBox="0 0 134.21333 100.4"
   xml:space="preserve"
   id="svg2"
   version="1.1"><metadata
     id="metadata8"><rdf:RDF><cc:Work
         rdf:about=""><dc:format>image/svg+xml</dc:format><dc:type
           rdf:resource="http://purl.org/dc/dcmitype/StillImage" /></cc:Work></rdf:RDF></metadata><defs
     id="defs6" /><g
     transform="matrix(1.3333333,0,0,-1.3333333,0,100.4)"
     id="g10"><g
       transform="scale(0.1)"
       id="g12"><path
         id="path14"
         style="fill:#231f20;fill-opacity:1;fill-rule:nonzero;stroke:none"
         d="m 974.176,448.398 c -38.84,-43.46 -86.875,-68.535 -105.051,-72.847 l 57.688,149.152 c 19.14,-0.164 34.753,-0.91 42.878,-2.605 7.032,-1.469 16.477,-8.754 20.598,-21.282 5.332,-16.214 -0.391,-34.828 -16.113,-52.418 z M 828.258,372.277 887.164,524.41 c 8.203,0.16 16.199,0.266 23.887,0.309 L 852.816,373.57 c -6.843,-0.511 -15.156,-0.961 -24.558,-1.293 z m -39.688,-0.578 58.399,151.629 c 7.996,0.262 16.152,0.508 24.297,0.719 l -58.711,-152.18 c -7.774,-0.144 -15.832,-0.207 -23.985,-0.168 z m -38.976,1.199 57.715,148.946 c 7.402,0.297 15.363,0.613 23.683,0.918 l -57.89,-150.828 c -8.098,0.191 -15.997,0.507 -23.508,0.964 z m -15.098,1.18 c -8.828,0.887 -16.445,2.051 -22.371,3.535 l 55.059,142.289 c 1.726,0.188 3.562,0.418 5.046,0.481 l 15.852,0.66 c 1.004,0.039 2.168,0.086 3.211,0.133 z m 15.852,143.031 -51.809,-134.414 -32.617,18.785 c -31.387,20.012 -67.344,46.586 -79.238,55.497 0.382,1.394 0.742,2.918 0.968,4.367 0.274,1.715 0.457,3.414 0.594,4.91 15.715,5.723 70.695,25.5 118.352,39.5 z M 574.145,482.094 c 0,-29.192 -23.75,-52.938 -52.938,-52.938 h -35.859 c -29.192,0 -52.942,23.746 -52.942,52.938 v 46.535 c 0,23.371 15.352,42.906 36.418,49.844 9.805,-4.864 21.141,-7.696 33.281,-7.696 12.528,0 24.219,3.028 34.239,8.2 21.785,-6.528 37.801,-26.465 37.801,-50.348 z M 632.016,224.23 c 0,-115.714 -57.703,-209.8511 -128.633,-209.8511 -70.926,0 -128.641,94.1371 -128.641,209.8511 0,89.766 34.774,166.399 83.477,196.309 8.308,-3.676 17.469,-5.758 27.129,-5.758 h 35.859 c 9.695,0 18.906,2.102 27.234,5.813 48.75,-29.867 83.575,-106.531 83.575,-196.364 z M 459.137,651.422 c 9.402,11.137 25.136,18.476 42.968,18.476 18.329,0 34.403,-7.781 43.7,-19.457 -6.532,-4.425 -10.938,-12.359 -10.938,-21.503 0,-9.754 5.012,-18.122 12.278,-22.317 -8.985,-12.758 -25.704,-21.469 -45.04,-21.469 -18.847,0 -35.246,8.262 -44.386,20.489 8.195,3.785 13.976,12.781 13.976,23.297 0,9.882 -5.136,18.347 -12.558,22.484 z M 299.996,505.754 c 47.656,-14 102.625,-33.774 118.348,-39.5 0.129,-1.496 0.324,-3.195 0.597,-4.91 0.223,-1.449 0.586,-2.977 0.965,-4.375 -11.894,-8.906 -47.851,-35.485 -79.238,-55.492 L 308.051,382.695 256.246,517.109 Z M 278.102,374.746 c -0.489,-0.019 -0.95,-0.043 -1.426,-0.152 -1.496,-0.176 -3,-0.36 -4.582,-0.516 l -56.797,147.098 c 1.035,-0.047 2.226,-0.094 3.215,-0.133 l 15.847,-0.66 c 1.485,-0.063 3.321,-0.293 5.051,-0.481 l 55.059,-142.289 c -4.543,-1.136 -10.071,-2.086 -16.367,-2.867 z m -44.61,-2.816 -57.89,150.836 c 8.367,-0.309 16.238,-0.621 23.679,-0.926 l 57.715,-148.949 c -7.508,-0.453 -15.41,-0.77 -23.504,-0.961 z m -39.445,-0.067 -58.719,152.184 c 8.152,-0.219 16.277,-0.457 24.297,-0.719 l 58.398,-151.629 c -8.144,-0.047 -16.21,0.012 -23.976,0.164 z m -40.262,1.707 -58.242,151.141 c 7.703,-0.047 15.672,-0.145 23.887,-0.305 l 58.906,-152.133 c -9.395,0.332 -17.715,0.782 -24.551,1.297 z M 32.418,448.398 c -15.7227,17.59 -21.4375,36.204 -16.1055,52.415 4.1211,12.531 13.5664,19.816 20.5977,21.285 8.125,1.699 23.7109,2.445 42.8711,2.617 L 137.465,375.551 c -18.172,4.308 -66.1994,29.387 -105.047,72.847 z m 971.522,56.907 c -5.135,15.625 -17.725,28.027 -31.319,30.863 -28.094,5.871 -130.254,1.559 -185.144,-0.762 L 771.664,534.75 C 733.363,533.219 622.152,493.844 588.5,481.641 c 0,0.152 0.02,0.3 0.02,0.453 v 46.535 c 0,7.187 -1.161,14.101 -3.262,20.598 l 73.769,27.906 24.786,91.051 c 1.046,3.836 -1.211,7.785 -5.047,8.824 -3.789,1.051 -7.774,-1.215 -8.821,-5.043 l -22.871,-83.985 -67.84,-25.664 c -6.699,11.446 -16.601,20.719 -28.566,26.582 4.992,4.571 9.113,9.825 12.141,15.602 9.89,2.684 17.265,12.57 17.265,24.438 0,12.585 -8.281,22.929 -19.082,24.824 -5.851,9.527 -14.777,17.441 -25.644,22.828 1.504,1.64 2.871,3.508 4.011,5.746 8.02,15.68 16.094,31.328 24.133,46.996 0.887,1.734 1.688,3.648 3.641,4.336 2.199,0.777 2.57,2.262 2.422,4.258 -0.098,1.387 -0.117,2.797 0,4.183 0.254,3 -1.328,3.516 -3.778,2.918 -4.746,-1.172 -8.39,-3.859 -10.722,-8.136 -2.063,-3.77 -4.141,-7.543 -5.918,-11.446 l -8.801,-17.289 c -3.555,-6.859 -7.207,-13.668 -10.652,-20.578 -1.641,-3.281 -3.965,-5.234 -6.985,-6.133 -6.492,1.817 -13.406,2.828 -20.594,2.828 -7.199,0 -14.113,-1.011 -20.597,-2.82 -3.008,0.883 -5.352,2.805 -6.981,6.106 -3.476,7.019 -7.101,13.964 -10.832,20.851 l -8.504,16.836 c -1.855,3.984 -3.964,7.859 -6.074,11.723 -2.226,4.062 -5.664,6.691 -10.148,7.902 -3.504,0.945 -4.278,0.359 -4.317,-3.176 -0.007,-1.605 0.059,-3.218 0.012,-4.828 -0.031,-1.304 0.313,-2.285 1.66,-2.785 2.176,-0.801 3.328,-2.57 4.336,-4.539 3.594,-7.086 7.235,-14.141 10.86,-21.215 4.441,-8.703 8.808,-17.441 13.339,-26.101 1.133,-2.18 2.481,-4.032 3.973,-5.649 -11.121,-5.515 -20.184,-13.695 -26.016,-23.523 -9.414,-3.051 -16.336,-12.633 -16.336,-24.117 0,-10.668 5.965,-19.743 14.356,-23.426 3.223,-6.504 7.852,-12.371 13.516,-17.375 -11.465,-5.989 -20.918,-15.149 -27.336,-26.332 l -69.188,26.175 -22.871,83.985 c -1.035,3.828 -4.961,6.094 -8.82,5.043 -3.828,-1.039 -6.094,-4.988 -5.047,-8.824 l 24.793,-91.051 75.246,-28.469 c -1.984,-6.332 -3.098,-13.051 -3.098,-20.035 v -46.535 c 0,-0.149 0.02,-0.289 0.02,-0.438 -33.692,12.223 -144.844,51.563 -183.113,53.094 l -15.821,0.656 C 164.242,537.727 62.0742,542.039 33.9688,536.168 20.375,533.332 7.78906,520.926 2.65234,505.305 -1.40234,492.973 -4.32031,467.934 21.7031,438.82 61.3633,394.441 113.98,365.102 136.715,360.977 c 9.57,-1.739 42.617,-3.7 77.676,-3.7 16.668,0 33.75,0.457 49.023,1.59 l -72.734,-103.66 -62.297,10.898 c -3.906,0.625 -7.637,-1.933 -8.32,-5.839 -0.684,-3.914 1.933,-7.637 5.839,-8.321 l 71.301,-12.48 85.137,121.348 c 8.379,1.14 15.742,2.546 21.191,4.382 30.957,10.418 107.442,67.086 125.282,80.481 4.277,-6.617 9.687,-12.406 15.949,-17.16 -17.824,-12.621 -33.711,-30.719 -46.77,-53.036 L 298.746,295.645 280.297,118.359 164.066,77.6016 c -3.75,-1.3203 -5.722,-5.4219 -4.402,-9.1719 1.035,-2.957 3.809,-4.8047 6.777,-4.8047 0.789,0 1.59,0.1289 2.383,0.3984 l 124.832,43.7896 18.77,180.39 70.656,56.828 C 368.766,310.129 360.367,268.723 360.367,224.23 360.367,100.59 424.527,0.00390625 503.383,0.00390625 582.242,0.00390625 646.391,100.59 646.391,224.23 c 0,44.461 -8.379,85.84 -22.676,120.723 l 70.558,-56.75 18.758,-180.39 124.836,-43.7896 c 0.789,-0.2695 1.59,-0.3984 2.383,-0.3984 2.969,0 5.742,1.8477 6.785,4.8047 1.309,3.75 -0.664,7.8516 -4.402,9.1719 l -116.242,40.7574 -18.446,177.286 -99.121,79.726 c -13.086,22.41 -29.043,40.578 -46.933,53.219 6.23,4.746 11.601,10.519 15.859,17.109 17.781,-13.351 94.344,-70.078 125.313,-80.504 4.746,-1.59 10.898,-2.879 17.917,-3.941 l 85.45,-121.789 71.3,12.48 c 3.907,0.684 6.524,4.407 5.84,8.321 -0.683,3.894 -4.394,6.464 -8.32,5.839 l -62.297,-10.898 -72.898,103.895 c 16.035,-1.305 34.324,-1.836 52.148,-1.836 35.059,0 68.106,1.972 77.676,3.711 22.734,4.125 75.351,33.464 115.019,77.843 26.022,29.114 23.092,54.153 19.042,66.485" /><path
         id="path16"
         style="fill:#231f20;fill-opacity:1;fill-rule:nonzero;stroke:none"
         d="m 362.523,731.926 c 19.27,-0.004 38.547,-0.024 57.813,0.023 2.394,0.004 4.309,-0.047 4.074,-3.277 -0.156,-2.133 1.629,-1.824 2.996,-1.883 1.477,-0.062 2.52,0.348 2.52,2.109 -0.008,7.293 -0.008,14.59 0.019,21.883 0.012,1.985 -1.238,2.203 -2.781,2.196 -1.516,-0.012 -2.98,-0.118 -2.785,-2.141 0.273,-2.856 -1.387,-3.047 -3.602,-3.031 -9.797,0.062 -19.589,0.023 -29.386,0.023 0,0.004 0,0.02 0,0.02 -9.481,0 -18.953,0.004 -28.426,-0.004 -5.285,-0.004 -5.86,-0.598 -5.86,-5.981 0,-1.504 0,-3.004 0.008,-4.508 0.039,-4.746 0.703,-5.429 5.41,-5.429" /><path
         id="path18"
         style="fill:#231f20;fill-opacity:1;fill-rule:nonzero;stroke:none"
         d="m 577.047,726.777 c 1.512,0.012 2.976,0.118 2.781,2.141 -0.262,2.855 1.426,3.043 3.633,3.031 9.797,-0.062 19.602,-0.027 29.394,-0.035 9.915,0 19.817,0.031 29.727,-0.019 2.852,-0.012 4.551,1.011 4.523,4.082 -0.031,2.043 -0.011,4.078 -0.019,6.121 -0.012,5.168 -0.559,5.726 -5.742,5.73 -19.387,0.012 -38.77,0.035 -58.156,-0.015 -2.188,-0.004 -3.583,0.371 -3.348,2.949 0.183,1.988 -1.164,2.222 -2.727,2.218 -1.504,-0.011 -2.84,-0.089 -2.84,-2.121 0.02,-7.296 0.028,-14.593 0,-21.894 -0.011,-1.992 1.231,-2.199 2.774,-2.188" /><path
         id="path20"
         style="fill:#231f20;fill-opacity:1;fill-rule:nonzero;stroke:none"
         d="M 408.168,375.691 H 597.27 l 17.226,-30.933 H 390.758 l 17.41,30.933" /><path
         id="path22"
         style="fill:#231f20;fill-opacity:1;fill-rule:nonzero;stroke:none"
         d="m 391.383,116.73 h 223.699 l 20.383,39.911 H 370.797 l 20.586,-39.911" /><path
         id="path24"
         style="fill:#231f20;fill-opacity:1;fill-rule:nonzero;stroke:none"
         d="m 422.203,53.2539 h 161.629 l 14.719,14.375 H 407.328 l 14.875,-14.375" /><path
         id="path26"
         style="fill:#231f20;fill-opacity:1;fill-rule:nonzero;stroke:none"
         d="m 376.227,295.676 h 253.757 l 9.836,-90.008 H 364.742 l 11.485,90.008" /></g></g></svg>